<?xml version="1.0" encoding="UTF-8"?>
<svg width="630px" height="166px" viewBox="0 0 630 166" version="1.1" xmlns="http://www.w3.org/2000/svg" xmlns:xlink="http://www.w3.org/1999/xlink">
    <!-- Generator: Sketch 49.3 (51167) - http://www.bohemiancoding.com/sketch -->
    <title>Untitled</title>
    <desc>Created with Sketch.</desc>
    <defs></defs>
    <g id="Page-1" stroke="none" stroke-width="1" fill="none" fill-rule="evenodd">
        <path d="M8.49,116.689 L11.43,116.689 C15.75,116.689 19.41,118.369 19.41,123.229 C19.41,128.089 15.63,129.469 11.43,129.469 L8.49,129.469 L8.49,116.689 Z M0.09,151.969 L8.49,151.969 L8.49,136.069 L12.03,136.069 C21.03,136.069 28.17,132.529 28.17,122.749 C28.17,112.729 19.83,110.089 10.71,110.089 L0.09,110.089 L0.09,151.969 Z M33.63,151.969 L41.67,151.969 L41.67,140.629 C41.67,136.189 41.67,128.029 48.21,128.029 C49.65,128.029 51.09,128.269 51.81,128.689 L51.81,120.589 C50.97,120.349 50.13,120.349 49.35,120.349 C44.55,120.349 41.25,125.209 40.89,128.089 L40.77,128.089 L40.77,121.069 L33.63,121.069 L33.63,151.969 Z M53.74,136.729 C53.74,145.609 59.68,152.689 69.88,152.689 C80.14,152.689 86.08,145.609 86.08,136.729 C86.08,126.529 79.06,120.349 69.88,120.349 C60.76,120.349 53.74,126.529 53.74,136.729 Z M62.14,135.769 C62.14,131.149 64.66,126.589 69.88,126.589 C75.16,126.589 77.68,131.029 77.68,135.769 C77.68,140.929 76.06,146.449 69.88,146.449 C63.76,146.449 62.14,140.869 62.14,135.769 Z M99.22,151.969 L108.28,151.969 L119.68,121.069 L111.64,121.069 L104.2,143.569 L104.08,143.569 L96.4,121.069 L87.76,121.069 L99.22,151.969 Z M124.72,151.969 L132.76,151.969 L132.76,121.069 L124.72,121.069 L124.72,151.969 Z M124.72,115.429 L132.76,115.429 L132.76,107.749 L124.72,107.749 L124.72,115.429 Z M146.44,136.429 C146.44,132.289 147.88,126.589 153.1,126.589 C158.26,126.589 160.3,132.109 160.3,136.429 C160.3,140.809 158.56,146.449 153.22,146.449 C147.94,146.449 146.44,140.689 146.44,136.429 Z M160.6,151.969 L168.4,151.969 L168.4,106.969 L160.36,106.969 L160.36,124.669 L160.24,124.669 C157.84,121.729 155.02,120.349 151,120.349 C141.52,120.349 138.04,127.909 138.04,136.429 C138.04,144.889 141.52,152.689 151,152.689 C154.78,152.689 158.08,151.489 160.48,148.489 L160.6,148.489 L160.6,151.969 Z M175.659,151.969 L183.699,151.969 L183.699,121.069 L175.659,121.069 L175.659,151.969 Z M175.659,115.429 L183.699,115.429 L183.699,107.749 L175.659,107.749 L175.659,115.429 Z M192.159,151.969 L200.199,151.969 L200.199,136.849 C200.199,132.889 201.459,126.589 207.279,126.589 C212.439,126.589 212.499,131.689 212.499,135.469 L212.499,151.969 L220.539,151.969 L220.539,132.469 C220.539,125.509 217.359,120.349 210.039,120.349 C205.839,120.349 202.419,121.729 199.899,125.269 L199.779,125.269 L199.779,121.069 L192.159,121.069 L192.159,151.969 Z M242.079,145.729 C237.459,145.729 235.239,140.569 235.239,136.369 C235.239,131.629 236.979,126.589 242.439,126.589 C247.119,126.589 249.159,130.909 249.159,136.189 C249.159,141.349 247.119,145.729 242.079,145.729 Z M249.519,121.069 L249.519,125.269 L249.399,125.269 C247.179,121.729 243.999,120.349 239.919,120.349 C230.679,120.349 226.839,128.929 226.839,136.369 C226.839,144.649 230.319,151.969 239.439,151.969 C243.939,151.969 247.539,149.689 249.039,147.049 L249.159,147.049 C249.159,152.389 248.739,159.049 239.859,159.049 C237.339,159.049 233.319,157.669 230.859,156.349 L230.199,163.189 C234.039,164.809 237.699,165.289 240.879,165.289 C253.839,165.289 257.199,157.369 257.199,148.969 L257.199,121.069 L249.519,121.069 Z M281.258,151.969 L289.298,151.969 L289.298,120.649 L289.418,120.649 L305.438,151.969 L315.698,151.969 L315.698,110.089 L307.658,110.089 L307.658,141.409 L307.538,141.409 L291.578,110.089 L281.258,110.089 L281.258,151.969 Z M323.797,151.969 L332.198,151.969 L332.198,133.609 L348.997,133.609 L348.997,151.969 L357.398,151.969 L357.398,110.089 L348.997,110.089 L348.997,127.009 L332.198,127.009 L332.198,110.089 L323.797,110.089 L323.797,151.969 Z M389.197,110.869 C386.137,109.849 382.777,109.369 379.177,109.369 C371.797,109.369 364.537,112.789 364.537,122.149 C364.537,136.009 382.897,132.709 382.897,140.689 C382.897,144.469 378.637,146.089 375.457,146.089 C372.157,146.089 368.857,145.069 365.977,143.509 L365.197,151.069 C369.337,152.089 371.377,152.689 375.937,152.689 C384.397,152.689 391.657,149.209 391.657,140.029 C391.657,125.989 373.297,129.049 373.297,121.789 C373.297,117.229 377.017,115.969 379.897,115.969 C382.837,115.969 385.777,116.629 388.417,117.769 L389.197,110.869 Z M432.937,121.489 C430.417,120.949 427.957,120.349 424.177,120.349 C417.877,120.349 412.057,123.289 412.057,129.949 C412.057,141.109 426.037,136.969 426.037,143.029 C426.037,146.029 422.797,146.809 420.757,146.809 C417.997,146.809 415.357,146.029 412.837,144.769 L412.357,151.369 C415.297,152.149 418.417,152.689 421.477,152.689 C428.017,152.689 434.437,149.809 434.437,142.609 C434.437,131.449 420.457,134.569 420.457,129.649 C420.457,127.009 423.037,126.229 425.197,126.229 C428.137,126.229 429.937,126.709 432.397,127.549 L432.937,121.489 Z M446.376,133.489 C446.736,129.349 449.016,126.229 453.516,126.229 C458.016,126.229 459.816,129.589 460.056,133.489 L446.376,133.489 Z M465.456,143.689 C462.456,145.369 459.096,146.809 455.196,146.809 C450.216,146.809 446.736,143.989 446.376,139.009 L467.736,139.009 C467.736,128.209 464.496,120.349 453.036,120.349 C443.436,120.349 438.696,127.729 438.696,136.669 C438.696,146.809 444.636,152.689 454.836,152.689 C459.156,152.689 462.516,151.849 465.456,150.229 L465.456,143.689 Z M473.016,151.969 L481.056,151.969 L481.056,140.629 C481.056,136.189 481.056,128.029 487.596,128.029 C489.036,128.029 490.476,128.269 491.196,128.689 L491.196,120.589 C490.356,120.349 489.516,120.349 488.736,120.349 C483.936,120.349 480.636,125.209 480.276,128.089 L480.156,128.089 L480.156,121.069 L473.016,121.069 L473.016,151.969 Z M506.615,151.969 L515.675,151.969 L527.075,121.069 L519.035,121.069 L511.595,143.569 L511.475,143.569 L503.795,121.069 L495.155,121.069 L506.615,151.969 Z M532.115,151.969 L540.155,151.969 L540.155,121.069 L532.115,121.069 L532.115,151.969 Z M532.115,115.429 L540.155,115.429 L540.155,107.749 L532.115,107.749 L532.115,115.429 Z M568.175,121.369 C565.955,120.709 563.615,120.349 560.375,120.349 C550.715,120.349 545.435,127.429 545.435,136.369 C545.435,145.789 550.535,152.689 560.675,152.689 C563.975,152.689 566.375,152.389 568.715,151.669 L568.355,145.009 C566.975,145.609 564.455,146.449 562.175,146.449 C556.535,146.449 553.835,142.069 553.835,136.369 C553.835,130.549 557.015,126.589 561.995,126.589 C564.455,126.589 566.015,127.069 567.455,127.729 L568.175,121.369 Z M579.754,133.489 C580.114,129.349 582.394,126.229 586.894,126.229 C591.394,126.229 593.194,129.589 593.434,133.489 L579.754,133.489 Z M598.834,143.689 C595.834,145.369 592.474,146.809 588.574,146.809 C583.594,146.809 580.114,143.989 579.754,139.009 L601.114,139.009 C601.114,128.209 597.874,120.349 586.414,120.349 C576.814,120.349 572.074,127.729 572.074,136.669 C572.074,146.809 578.014,152.689 588.214,152.689 C592.534,152.689 595.894,151.849 598.834,150.229 L598.834,143.689 Z M626.314,121.489 C623.794,120.949 621.334,120.349 617.554,120.349 C611.254,120.349 605.434,123.289 605.434,129.949 C605.434,141.109 619.414,136.969 619.414,143.029 C619.414,146.029 616.174,146.809 614.134,146.809 C611.374,146.809 608.734,146.029 606.214,144.769 L605.734,151.369 C608.674,152.149 611.794,152.689 614.854,152.689 C621.394,152.689 627.814,149.809 627.814,142.609 C627.814,131.449 613.834,134.569 613.834,129.649 C613.834,127.009 616.414,126.229 618.574,126.229 C621.514,126.229 623.314,126.709 625.774,127.549 L626.314,121.489 Z" id="Fill-1" fill="#231F20"></path>
        <path d="M418.732,85.709 L629.913,85.709 L629.913,0.669 L418.732,0.669 L418.732,85.709 Z M503.64,8.875 L489.061,77.324 L466.184,77.324 L451.8,29.961 L451.605,29.961 L442.037,77.324 L424.688,77.324 L439.383,8.875 L462.338,8.875 L476.438,56.341 L476.632,56.341 L486.29,8.875 L503.64,8.875 Z M569.075,8.875 L554.781,77.324 L536.357,77.324 L542.468,48.007 L520.678,48.007 L514.567,77.324 L496.143,77.324 L510.437,8.875 L528.861,8.875 L523.449,35.062 L545.226,35.062 L550.651,8.875 L569.075,8.875 Z M622.003,10.742 L617.562,24.371 C614.015,22.709 609.184,21.24 602.388,21.24 C595.099,21.24 589.182,22.309 589.182,27.809 C589.182,37.509 615.891,33.889 615.891,54.679 C615.891,73.601 598.245,78.509 582.28,78.509 C575.185,78.509 567.003,76.834 560.996,74.967 L565.333,61.042 C568.971,63.4 576.273,64.971 582.28,64.971 C588.004,64.971 596.963,63.889 596.963,56.831 C596.963,45.843 570.253,49.964 570.253,30.656 C570.253,12.996 585.829,7.702 600.911,7.702 C609.392,7.702 617.368,8.591 622.003,10.742 Z" id="Fill-2" fill="#005EB8"></path>
    </g>
</svg>