<?xml version="1.0" encoding="UTF-8"?>
<svg width="130px" height="30px" viewBox="0 0 130 30" version="1.1" xmlns="http://www.w3.org/2000/svg" xmlns:xlink="http://www.w3.org/1999/xlink">
    <!-- Generator: Sketch 51.1 (57501) - http://www.bohemiancoding.com/sketch -->
    <title>logo</title>
    <desc>Created with Sketch.</desc>
    <defs></defs>
    <g id="Symbols" stroke="none" stroke-width="1" fill="none" fill-rule="evenodd">
        <g id="Side-Nav-/-Blank" transform="translate(-24.000000, -18.000000)" fill="#757575">
            <g id="Side-Nav-Blank">
                <g id="logo-copy" transform="translate(24.000000, 0.000000)">
                    <path d="M125.338655,29.7352687 L123.105044,29.7352687 C122.880964,29.7352687 122.689238,29.9287534 122.689238,30.1558877 L122.689238,32.4176158 C122.689238,33.6145772 121.731804,34.5832026 120.55149,34.5832026 C119.371175,34.5832026 118.413742,33.6145772 118.413742,32.4176158 L118.413742,30.1871336 L118.956567,30.1871336 C119.147095,30.1871336 119.306467,30.1871336 119.498193,30.1558877 L119.498193,32.4176158 C119.498193,32.9992718 119.976311,33.4847862 120.55149,33.4847862 C121.12547,33.4847862 121.604786,32.9992718 121.604786,32.4176158 L121.604786,30.1558877 C121.604786,29.3146498 122.274629,28.6356506 123.105044,28.6356506 L125.338655,28.6356506 C125.912635,28.6356506 126.391951,28.1501362 126.391951,27.5684802 C126.391951,26.9868243 125.912635,26.5025116 125.338655,26.5025116 L122.147611,26.5025116 C121.094315,26.5025116 120.169235,27.1166153 119.753429,28.0215469 C119.498193,28.1188902 119.241759,28.1825839 118.956567,28.1825839 L118.54076,28.1825839 C118.987722,26.5674071 120.423273,25.4028935 122.147611,25.4028935 L125.338655,25.4028935 C126.520168,25.4028935 127.477601,26.3727206 127.477601,27.5684802 C127.477601,28.7642398 126.520168,29.7352687 125.338655,29.7352687 Z M113.626576,27.5684802 C113.626576,26.3727206 114.582811,25.4028935 115.764324,25.4028935 L117.997935,25.4028935 C118.222015,25.4028935 118.413742,25.2094088 118.413742,24.9822746 L118.413742,22.7205464 C118.413742,21.523585 119.371175,20.5537579 120.55149,20.5537579 C121.731804,20.5537579 122.689238,21.523585 122.689238,22.7205464 L122.689238,24.9510286 L122.147611,24.9510286 C121.955885,24.9510286 121.795314,24.9510286 121.604786,24.9822746 L121.604786,22.7205464 C121.604786,22.1376887 121.12547,21.653376 120.55149,21.653376 C119.976311,21.653376 119.498193,22.1376887 119.498193,22.7205464 L119.498193,24.9822746 C119.498193,25.8235125 118.827151,26.5025116 117.997935,26.5025116 L115.764324,26.5025116 C115.189145,26.5025116 114.711028,26.9868243 114.711028,27.5684802 C114.711028,28.1501362 115.189145,28.6356506 115.764324,28.6356506 L118.956567,28.6356506 C120.008665,28.6356506 120.902588,28.0215469 121.34955,27.1166153 C121.604786,27.0192721 121.860021,26.9543766 122.147611,26.9543766 L122.563417,26.9543766 C122.116455,28.5707551 120.678508,29.7352687 118.956567,29.7352687 L115.764324,29.7352687 C114.582811,29.7352687 113.626576,28.7642398 113.626576,27.5684802 Z M120.55149,18 C115.348518,18 111.104177,22.2674797 111.073022,27.5360325 C111.073022,32.805787 115.285008,37.1057145 120.48798,37.1369605 C125.690952,37.17061 129.966448,32.8706825 130,27.5684802 C130,22.2999274 125.785617,18 120.55149,18 Z M113.626576,46.8039857 C113.657732,46.9001272 113.688887,46.9974704 113.688887,47.1272614 L113.688887,47.7089173 C113.657732,47.7738128 113.657732,47.8062606 113.593024,47.8062606 L113.433652,47.8062606 C113.401298,47.8062606 113.370142,47.8062606 113.370142,47.7401633 L113.370142,47.1272614 C113.370142,46.9974704 113.337789,46.9001272 113.21077,46.9001272 C113.114907,46.9001272 113.020242,46.9337767 112.955534,46.9974704 L112.955534,47.3531939 L112.955534,47.7401633 C112.955534,47.7738128 112.955534,47.8062606 112.890827,47.8062606 L112.731454,47.8062606 C112.6991,47.8062606 112.667945,47.8062606 112.667945,47.7401633 L112.667945,47.1272614 C112.667945,46.9974704 112.635591,46.9001272 112.508572,46.9001272 C112.412709,46.9001272 112.316846,46.9662244 112.253337,47.0299182 L112.253337,47.7401633 C112.253337,47.7738128 112.222181,47.8062606 112.188629,47.8062606 L112.092766,47.8062606 C112.061611,47.8062606 112.030455,47.8062606 112.030455,47.7401633 L112.030455,46.7390902 C112.030455,46.7066425 112.061611,46.6741947 112.092766,46.6741947 L112.253337,46.6741947 C112.284492,46.6741947 112.316846,46.6741947 112.316846,46.7066425 L112.316846,46.771538 C112.412709,46.6741947 112.539728,46.641747 112.635591,46.641747 C112.763808,46.641747 112.859671,46.7066425 112.92318,46.8039857 C113.020242,46.7066425 113.179614,46.641747 113.305435,46.641747 C113.466005,46.641747 113.561869,46.7390902 113.626576,46.8039857 Z M111.83753,47.6764696 C111.869884,47.7401633 111.869884,47.7401633 111.83753,47.7738128 C111.774021,47.8062606 111.679356,47.8375066 111.583493,47.8375066 C111.455276,47.8375066 111.359413,47.8062606 111.327059,47.7401633 C111.26355,47.6764696 111.26355,47.5803281 111.26355,47.4180894 L111.26355,46.9001272 L111.135333,46.9001272 C111.104177,46.9001272 111.073022,46.9001272 111.073022,46.8364335 L111.073022,46.7390902 C111.073022,46.7066425 111.073022,46.7066425 111.104177,46.7066425 L111.232394,46.7066425 L111.232394,46.4470605 C111.232394,46.4158145 111.26355,46.3845685 111.295904,46.3845685 L111.455276,46.350919 C111.486432,46.350919 111.486432,46.350919 111.486432,46.4158145 L111.486432,46.6741947 L111.741667,46.6741947 C111.774021,46.6741947 111.774021,46.6741947 111.774021,46.7066425 L111.774021,46.8039857 C111.774021,46.8364335 111.741667,46.8364335 111.741667,46.8364335 L111.486432,46.8364335 L111.486432,47.3531939 C111.486432,47.4180894 111.486432,47.4829849 111.518785,47.5142309 C111.549941,47.5466786 111.583493,47.5466786 111.614649,47.5466786 C111.679356,47.5466786 111.710512,47.5466786 111.741667,47.5142309 L111.774021,47.5142309 C111.774021,47.5142309 111.806375,47.5142309 111.806375,47.5466786 L111.83753,47.6764696 Z M109.859155,46.9337767 C109.955018,47.0936119 110.050881,47.2882984 110.050881,47.4505371 C109.986174,47.7089173 109.732136,47.7738128 109.476901,47.7738128 L107.146228,47.7738128 C106.666912,47.7738128 106.348168,47.6440218 106.061776,47.1909551 L102.614298,41.4044402 L102.326709,41.6640221 L102.326709,47.0299182 C102.326709,47.4829849 102.136181,47.7089173 101.689219,47.7089173 L99.646136,47.7089173 C99.2315279,47.7089173 99.0074478,47.4505371 99.0074478,47.0623659 L99.0398016,29.0562695 C99.0398016,28.6044046 99.1991741,28.4421659 99.6137822,28.4085164 L101.593356,28.1501362 C101.689219,28.1501362 101.720375,28.1188902 101.816238,28.1188902 C102.136181,28.1188902 102.326709,28.2811289 102.326709,28.7642398 L102.326709,39.7880616 L102.391417,39.7880616 L105.964715,34.8427845 C106.188795,34.5519566 106.348168,34.4546133 106.699266,34.4546133 L109.125802,34.4546133 C109.348684,34.4546133 109.476901,34.5519566 109.476901,34.7454413 C109.476901,34.8427845 109.444547,34.938926 109.381038,35.0362693 L105.486598,39.9815463 L109.859155,46.9337767 Z M97.0290723,39.0453687 L96.9967185,47.0936119 C96.9643647,47.5142309 96.8049923,47.7738128 96.3256766,47.7738128 L94.3796549,47.7738128 C93.9015375,47.7738128 93.7409667,47.5142309 93.7409667,47.0623659 L93.7409667,39.5945769 C93.7409667,38.0743398 93.3263587,37.009573 91.6990819,37.009573 C90.6457857,37.009573 89.3360556,37.5900272 88.5068395,38.3327201 L88.4744857,47.0936119 C88.4744857,47.5466786 88.2827594,47.7738128 87.8357975,47.7738128 L85.857422,47.7738128 C85.442814,47.7738128 85.2199322,47.5466786 85.2199322,47.1272614 L85.2510877,35.1660602 C85.2510877,34.7141953 85.442814,34.4870611 85.9209313,34.4870611 L87.676425,34.4870611 C88.0598776,34.4870611 88.3163115,34.5832026 88.3163115,35.0050233 L88.347467,35.7164702 C89.5912912,34.7141953 91.1562569,34.1313376 92.7511799,34.1313376 C95.7840498,34.1313376 97.0290723,36.0709919 97.0290723,39.0453687 Z M83.0797876,30.9310283 C83.0797876,31.9981987 82.1559066,32.6435483 81.2619829,32.6435483 C80.3680591,32.6435483 79.4106261,32.0306464 79.4106261,30.9310283 C79.4106261,29.832612 80.3045498,29.1848588 81.2619829,29.1848588 C82.1870622,29.1848588 83.0797876,29.832612 83.0797876,30.9310283 Z M82.8892596,35.1011647 L82.8581041,47.0936119 C82.8892596,47.5466786 82.6663778,47.7401633 82.1870622,47.7401633 L80.3045498,47.7401633 C79.8264324,47.7401633 79.6023523,47.5466786 79.6023523,47.0623659 L79.6335079,35.068717 C79.6335079,34.6168521 79.9210973,34.4221656 80.3357053,34.4546133 L82.219416,34.4546133 C82.6663778,34.4546133 82.8892596,34.5832026 82.8892596,35.1011647 Z M77.5592692,28.7329938 L77.5269154,47.0623659 C77.5269154,47.5142309 77.3351891,47.7089173 76.9529349,47.7089173 L74.8786963,47.7089173 C74.4952437,47.7089173 74.2388098,47.5142309 74.2388098,47.0623659 L74.2723619,29.0562695 C74.2723619,28.6044046 74.4628899,28.4421659 74.8139886,28.4085164 L76.7612086,28.1501362 C76.8259162,28.1501362 76.8882273,28.1188902 76.9529349,28.1188902 C77.2716798,28.1188902 77.5592692,28.2811289 77.5592692,28.7329938 Z M72.867967,34.4870611 C72.867967,34.5832026 72.867967,34.6805458 72.8356132,34.7454413 L72.5480237,36.6850955 C72.5156699,36.9434758 72.3886513,37.040819 72.1645712,37.040819 L72.0699063,37.040819 C71.8458263,36.9759235 71.5905907,36.9434758 71.3365534,36.9434758 C70.4090775,36.9434758 69.4204889,37.4289902 68.7182914,38.2702281 L68.6859376,46.9974704 C68.6859376,47.4505371 68.4942113,47.6764696 68.0472495,47.6764696 L66.068874,47.6764696 C65.6219121,47.6764696 65.4301858,47.4505371 65.4301858,46.9974704 L65.4625396,38.4300633 L65.4625396,35.068717 C65.4625396,34.5183071 65.7489308,34.3897178 66.1335816,34.3897178 L67.8555232,34.3897178 C68.3024851,34.3897178 68.5265652,34.5183071 68.5265652,34.90768 L68.558919,35.7801639 C69.3893334,34.7141953 70.3144127,34.0339944 71.8458263,34.0339944 C72.0699063,34.0339944 72.3562975,34.0988899 72.6115331,34.1313376 C72.8032593,34.1962331 72.867967,34.2611286 72.867967,34.4870611 Z M56.9403068,45.4135396 C54.5149694,45.4135396 53.8451257,43.1818557 53.8451257,40.9201275 C53.8762812,38.722093 54.6419881,36.6202 57.0685237,36.6202 C59.4303517,36.6202 60.1325492,38.7545408 60.1637047,41.0174707 C60.1325492,43.2804007 59.3344886,45.4135396 56.9403068,45.4135396 Z M57.0996792,34.0027484 C52.8553388,33.9690989 50.461157,37.009573 50.461157,40.9525752 C50.461157,44.9604729 52.5042401,47.9997453 56.9091512,47.9997453 C61.1223361,48.032193 63.5153197,44.9604729 63.5476735,41.0174707 C63.5476735,36.9759235 61.5045904,34.0027484 57.0996792,34.0027484 Z M49.9506858,46.8039857 C50.0465489,47.1272614 49.8871765,47.2558506 49.6319409,47.3531939 C48.8015264,47.7089173 47.6847209,47.9672976 46.5990709,47.9672976 C45.2270297,47.9672976 44.014361,47.6115741 43.3445174,46.8039857 C42.5141029,45.8341586 42.4817491,44.7020927 42.4817491,42.6987448 L42.4817491,36.5889541 L41.2055711,36.5889541 C40.6950999,36.5889541 40.5992368,36.4916108 40.5992368,35.9099549 L40.5992368,34.8740305 C40.5992368,34.5519566 40.7586092,34.3248223 41.0773542,34.3248223 L42.4505936,34.3248223 L42.4505936,31.3179977 C42.4505936,30.8661328 42.7058292,30.7050958 43.1204373,30.6726481 L45.0676573,30.4130661 L45.1946759,30.4130661 C45.5469729,30.4130661 45.7051471,30.6077526 45.7051471,31.0283715 L45.7051471,34.3248223 L48.7703709,34.3248223 C49.0891158,34.3248223 49.2808421,34.4221656 49.2808421,34.777889 L49.2808421,36.0709919 C49.2808421,36.3942676 49.056762,36.5889541 48.7380171,36.5889541 L45.7051471,36.5889541 L45.7051471,42.8910277 C45.7051471,43.6998179 45.7698547,44.3139215 46.0562459,44.76819 C46.3126797,45.1227117 46.6961323,45.3486441 47.3336222,45.3486441 C48.0034658,45.3486441 48.5774464,45.1876072 49.056762,45.0265702 C49.1526252,44.9929207 49.2484883,44.9604729 49.3131959,44.9604729 C49.5037239,44.9604729 49.5995871,45.0578162 49.6642947,45.2837486 L49.9195303,46.641747 C49.9506858,46.7390902 49.9506858,46.7390902 49.9506858,46.8039857 Z M39.3218605,46.2223298 C39.3865681,46.4158145 39.4177236,46.5780532 39.4177236,46.6741947 C39.4177236,46.9337767 39.290705,47.0299182 39.0354694,47.1597092 C37.7257393,47.7738128 36.5454244,47.9672976 35.1086756,47.9672976 C30.9278446,47.9672976 28.6295258,45.3161964 28.6295258,41.0811645 C28.6295258,36.8148865 31.1507263,33.9378529 35.3651095,33.9690989 C36.5777782,33.9690989 37.8539562,34.2274791 39.0031156,34.7454413 C39.2271956,34.8427845 39.3218605,34.90768 39.3218605,35.1336125 C39.3218605,35.2309557 39.290705,35.3919927 39.2583512,35.4568882 L38.9072524,36.9122298 C38.8437431,37.17061 38.7478799,37.2991992 38.5885075,37.2991992 C38.4926443,37.2991992 38.3967812,37.2343037 38.3009181,37.2030577 C37.5028575,36.8785803 36.6412875,36.5889541 35.6838544,36.5889541 C33.3531819,36.5889541 32.0134946,38.2702281 32.0134946,40.9525752 C32.0134946,43.6024746 33.1950077,45.4135396 35.5232837,45.4135396 C36.7047968,45.4135396 37.4081926,45.1876072 38.3644274,44.799436 C38.4602905,44.76819 38.5561537,44.7020927 38.6520168,44.7020927 C38.8125876,44.7020927 38.9072524,44.8318837 38.97196,45.0265702 L39.3218605,46.2223298 Z M20.6189625,45.3161964 C18.1924268,45.3161964 17.5225831,43.0857142 17.5225831,40.823986 C17.554937,38.6247498 18.3206438,36.5228568 20.7459811,36.5228568 C23.140163,36.5565063 23.8423604,38.6896453 23.8423604,40.9201275 C23.8100066,43.1818557 23.011946,45.3161964 20.6189625,45.3161964 Z M20.7783349,33.9378529 C16.5339945,33.9054052 14.1398127,36.9434758 14.1398127,40.8876797 C14.1398127,44.8955774 16.1828958,47.9360516 20.5878069,47.9360516 C24.8321473,47.9360516 27.2263292,44.8955774 27.2263292,40.9525752 C27.2263292,36.9122298 25.1832461,33.9378529 20.7783349,33.9378529 Z M9.19207654,43.8308106 C8.65044982,44.508608 7.40542733,45.1876072 6.41564044,45.1876072 C4.21318487,45.1876072 3.41512425,43.1181619 3.41512425,40.855232 C3.41512425,38.592302 4.40491114,36.5228568 6.60736671,36.5228568 C7.62830912,36.5228568 8.65044982,37.1369605 9.19207654,37.8808551 L9.19207654,43.8308106 Z M12.0655741,27.9578532 C12.0332203,27.9578532 11.8091402,27.9890992 11.7779847,27.9890992 L9.76725536,28.2474794 C9.32029349,28.3123749 9.19207654,28.5070614 9.19207654,28.9913741 L9.19207654,35.1660602 C8.42636974,34.3584719 7.15019173,33.8729574 5.93632475,33.8729574 C2.13894624,33.8729574 0,37.2030577 0,41.0499185 C0,44.7333387 1.7878475,47.9024021 5.71344296,47.9024021 C7.15019173,47.9024021 8.65044982,47.1597092 9.41615663,46.2860235 L9.47966595,47.0299182 C9.47966595,47.3531939 9.67139223,47.5803281 10.1183541,47.5803281 L11.8738478,47.5803281 C12.1925927,47.5803281 12.4478283,47.3531939 12.4801821,46.9001272 L12.5125359,28.5070614 C12.5125359,28.0864424 12.384319,27.9578532 12.0655741,27.9578532 Z" id="logo"></path>
                </g>
            </g>
        </g>
    </g>
</svg>